<svg viewBox="0 0 700 170" xmlns="http://www.w3.org/2000/svg" role="img" aria-label="Fallback timeline: the backup source takes over after the preferred source is silent, then the preferred immediately wins when it returns.">
  <defs>
    <marker id="arrow" viewBox="0 0 10 10" refX="9" refY="5" markerWidth="6" markerHeight="6" orient="auto-start-reverse">
      <path d="M 0 0 L 10 5 L 0 10 z" fill="#555"/>
    </marker>
  </defs>

  <text x="0" y="55" font-size="12" fill="#333">Preferred</text>
  <text x="0" y="120" font-size="12" fill="#333">Backup</text>

  <!-- Preferred: active then silence then returns -->
  <rect x="80" y="42" width="30" height="16" fill="#2e7d32" rx="2"/>
  <rect x="118" y="42" width="30" height="16" fill="#2e7d32" rx="2"/>
  <rect x="156" y="42" width="30" height="16" fill="#2e7d32" rx="2"/>
  <rect x="194" y="42" width="30" height="16" fill="#2e7d32" rx="2"/>
  <rect x="232" y="42" width="30" height="16" fill="#2e7d32" rx="2"/>

  <line x1="262" y1="50" x2="442" y2="50" stroke="#b71c1c" stroke-width="1.5" stroke-dasharray="4 3"/>
  <text x="352" y="40" font-size="11" fill="#b71c1c" text-anchor="middle">(silent)</text>

  <!-- Preferred returns -->
  <rect x="560" y="42" width="30" height="16" fill="#2e7d32" rx="2"/>
  <rect x="598" y="42" width="30" height="16" fill="#2e7d32" rx="2"/>
  <rect x="636" y="42" width="30" height="16" fill="#2e7d32" rx="2"/>

  <!-- Backup: ignored, then accepted, then ignored again -->
  <rect x="80"  y="107" width="30" height="16" fill="#bdbdbd" rx="2"/>
  <rect x="118" y="107" width="30" height="16" fill="#bdbdbd" rx="2"/>
  <rect x="156" y="107" width="30" height="16" fill="#bdbdbd" rx="2"/>
  <rect x="194" y="107" width="30" height="16" fill="#bdbdbd" rx="2"/>
  <rect x="232" y="107" width="30" height="16" fill="#bdbdbd" rx="2"/>
  <rect x="270" y="107" width="30" height="16" fill="#bdbdbd" rx="2"/>
  <rect x="308" y="107" width="30" height="16" fill="#bdbdbd" rx="2"/>
  <rect x="346" y="107" width="30" height="16" fill="#bdbdbd" rx="2"/>
  <rect x="384" y="107" width="30" height="16" fill="#bdbdbd" rx="2"/>
  <!-- accepted -->
  <rect x="442" y="107" width="30" height="16" fill="#1565c0" rx="2"/>
  <rect x="480" y="107" width="30" height="16" fill="#1565c0" rx="2"/>
  <rect x="518" y="107" width="30" height="16" fill="#1565c0" rx="2"/>
  <!-- ignored again when preferred returns -->
  <rect x="560" y="107" width="30" height="16" fill="#bdbdbd" rx="2"/>
  <rect x="598" y="107" width="30" height="16" fill="#bdbdbd" rx="2"/>
  <rect x="636" y="107" width="30" height="16" fill="#bdbdbd" rx="2"/>

  <!-- Threshold marker -->
  <line x1="442" y1="25" x2="442" y2="140" stroke="#555" stroke-width="1" stroke-dasharray="3 3"/>
  <line x1="262" y1="150" x2="442" y2="150" stroke="#555" stroke-width="1" marker-start="url(#arrow)" marker-end="url(#arrow)"/>
  <text x="352" y="164" font-size="11" fill="#333" text-anchor="middle">Fallback after (ms)</text>

  <!-- Returns marker -->
  <line x1="560" y1="25" x2="560" y2="140" stroke="#2e7d32" stroke-width="1" stroke-dasharray="3 3"/>
  <text x="560" y="18" font-size="10" fill="#2e7d32" text-anchor="middle">returns</text>

  <!-- Legend -->
  <rect x="0" y="0" width="10" height="10" fill="#2e7d32" rx="2"/>
  <text x="16" y="9" font-size="10" fill="#555">preferred active</text>
  <rect x="130" y="0" width="10" height="10" fill="#bdbdbd" rx="2"/>
  <text x="146" y="9" font-size="10" fill="#555">backup ignored</text>
  <rect x="240" y="0" width="10" height="10" fill="#1565c0" rx="2"/>
  <text x="256" y="9" font-size="10" fill="#555">backup accepted</text>

  <line x1="80" y1="140" x2="680" y2="140" stroke="#ccc" stroke-width="1"/>
  <text x="680" y="140" font-size="10" fill="#999" text-anchor="end" dy="12">time →</text>
</svg>
